<?xml version="1.0" encoding="UTF-8" standalone="no"?>
<!-- Generator: Adobe Illustrator 16.0.0, SVG Export Plug-In . SVG Version: 6.00 Build 0)  -->

<svg
   xmlns:dc="http://purl.org/dc/elements/1.1/"
   xmlns:cc="http://creativecommons.org/ns#"
   xmlns:rdf="http://www.w3.org/1999/02/22-rdf-syntax-ns#"
   xmlns:svg="http://www.w3.org/2000/svg"
   xmlns="http://www.w3.org/2000/svg"
   xmlns:sodipodi="http://sodipodi.sourceforge.net/DTD/sodipodi-0.dtd"
   xmlns:inkscape="http://www.inkscape.org/namespaces/inkscape"
   version="1.1"
   id="Lag_1"
   x="0px"
   y="0px"
   width="155px"
   height="50px"
   viewBox="0 0 155 50"
   enable-background="new 0 0 155 50"
   xml:space="preserve"
   inkscape:version="0.91 r13725"
   sodipodi:docname="logo.svg"><metadata
     id="metadata45"><rdf:RDF><cc:Work
         rdf:about=""><dc:format>image/svg+xml</dc:format><dc:type
           rdf:resource="http://purl.org/dc/dcmitype/StillImage" /><dc:title></dc:title></cc:Work></rdf:RDF></metadata><defs
     id="defs43" /><sodipodi:namedview
     pagecolor="#ffffff"
     bordercolor="#666666"
     borderopacity="1"
     objecttolerance="10"
     gridtolerance="10"
     guidetolerance="10"
     inkscape:pageopacity="0"
     inkscape:pageshadow="2"
     inkscape:window-width="1680"
     inkscape:window-height="975"
     id="namedview41"
     showgrid="false"
     inkscape:zoom="2.3548387"
     inkscape:cx="77.5"
     inkscape:cy="25"
     inkscape:window-x="-9"
     inkscape:window-y="-9"
     inkscape:window-maximized="1"
     inkscape:current-layer="Lag_1" /><path
     fill="#010202"
     d="M27.443,25.161c3.546,0,7.574,0.24,7.574,11.721c0,10.459-3.486,10.939-8.866,10.939h-2.074v-22.66H27.443   M27.083,27.715v17.552c4.958,0.15,4.749-4.539,4.749-8.385C31.832,33.396,32.162,27.415,27.083,27.715z"
     id="path3"
     style="fill:#383a3b;fill-opacity:1" /><path
     fill="#010202"
     d="M42.362,45.868h-0.06c-0.572,1.322-1.172,2.193-2.795,2.193c-3.517,0-3.576-5.56-3.576-8.024  c0-2.524,0.09-7.634,3.666-7.634c1.323,0,2.194,0.813,2.706,1.924h0.06v-1.684h2.825v15.178h-2.825V45.868 M42.453,40.218  c0-1.203,0.12-5.29-1.773-5.29c-2.104,0-1.863,4.058-1.863,5.29c0,1.262-0.24,5.319,1.863,5.319  C42.573,45.537,42.453,41.419,42.453,40.218z"
     id="path5"
     style="fill:#383a3b;fill-opacity:1" /><path
     fill="#010202"
     d="M49.817,34.387h0.06c0.631-1.232,1.563-1.983,3.065-1.983c3.005,0,3.096,2.675,3.096,4.989v10.429h-2.825  V37.333c0-1.053-0.181-2.405-1.683-2.405c-1.863,0-1.713,2.134-1.713,3.427v9.467h-2.825V32.644h2.825V34.387"
     id="path7"
     style="fill:#383a3b;fill-opacity:1" /><path
     fill="#010202"
     d="M64.086,35.739c-0.541-0.48-1.413-0.812-2.104-0.812c-1.052,0-1.923,0.602-1.923,1.624  c0.06,2.554,4.749,2.674,4.749,7.001c0,2.676-1.653,4.509-4.358,4.509c-0.992,0-1.623-0.211-2.464-0.721v-2.766  c0.721,0.571,1.382,0.962,2.344,0.962c1.232,0,1.893-0.752,1.893-1.925c0-2.674-4.749-2.854-4.749-7.061  c0-2.404,1.653-4.148,4.057-4.148c0.962,0,1.743,0.181,2.555,0.662V35.739"
     id="path9"
     style="fill:#383a3b;fill-opacity:1" /><polyline
     fill="#010202"
     points="69.115,25.397 69.115,39.376 69.175,39.376 72.691,32.644 75.847,32.644 71.97,39.376   76.357,47.821 73.082,47.821 69.175,39.767 69.115,39.767 69.115,47.821 66.29,47.821 66.29,25.397 69.115,25.397 "
     id="polyline11"
     style="fill:#383a3b;fill-opacity:1" /><path
     fill="#010202"
     d="M92.221,35.86v0.359c0,4.328,0.631,11.902-5.41,11.902c-5.379,0-6.011-5.17-6.011-11.57  c0-6.342,0.511-11.691,5.74-11.691c3.216,0,4.749,1.623,5.529,4.628l-2.854,1.172c-0.301-1.503-0.721-2.975-2.585-2.975  c-2.464,0-2.644,3.366-2.644,8.835c0,7.875,1.32,8.776,2.644,8.776c1.232,0,2.585-0.181,2.585-5.591v-1.232h-2.525V35.86H92.221"
     id="path13"
     style="fill:#383a3b;fill-opacity:1" /><path
     fill="#010202"
     d="M100.285,45.868h-0.061c-0.572,1.322-1.173,2.193-2.795,2.193c-3.516,0-3.576-5.56-3.576-8.024  c0-2.524,0.09-7.634,3.666-7.634c1.322,0,2.193,0.813,2.705,1.924h0.061v-1.684h2.824v15.178h-2.824V45.868 M100.375,40.218  c0-1.203,0.12-5.29-1.773-5.29c-2.104,0-1.863,4.058-1.863,5.29c0,1.262-0.24,5.319,1.863,5.319  C100.495,45.537,100.375,41.419,100.375,40.218z"
     id="path15"
     style="fill:#383a3b;fill-opacity:1" /><path
     fill="#010202"
     d="M107.719,34.507h0.061c0.661-1.322,1.652-2.104,3.215-2.104v2.795l-0.48-0.029  c-2.104,0-2.764,1.172-2.764,3.095v9.558h-2.855V32.644h2.824V34.507"
     id="path17"
     style="fill:#383a3b;fill-opacity:1" /><polyline
     fill="#010202"
     points="116.374,28.347 116.374,32.644 117.877,32.644 117.877,34.868 116.374,34.868 116.374,47.821   113.549,47.821 113.549,34.868 112.016,34.868 112.016,32.644 113.549,32.644 113.549,28.347 116.374,28.347 "
     id="polyline19"
     style="fill:#383a3b;fill-opacity:1" /><path
     fill="#010202"
     d="M122.445,34.387h0.06c0.63-1.232,1.563-1.983,3.065-1.983c3.004,0,3.096,2.675,3.096,4.989v10.429h-2.826  V37.333c0-1.053-0.18-2.405-1.682-2.405c-1.863,0-1.713,2.134-1.713,3.427v9.467h-2.825V32.644h2.825V34.387"
     id="path21"
     style="fill:#383a3b;fill-opacity:1" /><path
     fill="#010202"
     d="M133.334,40.788c0,1.263-0.061,4.749,1.773,4.749c1.502,0,1.773-1.653,1.773-2.825h2.614  c0,2.795-1.232,5.35-4.418,5.35c-4.237,0-4.629-4.509-4.629-7.724c0-3.096,0.361-7.935,4.538-7.935c4.117,0,4.599,4.809,4.599,7.935  v0.45H133.334 M136.699,38.775c0-1.172,0-3.848-1.713-3.848c-1.771,0-1.652,2.676-1.652,3.848H136.699z"
     id="path23"
     style="fill:#383a3b;fill-opacity:1" /><path
     fill="#010202"
     d="M144.193,34.507h0.061c0.66-1.322,1.652-2.104,3.215-2.104v2.795l-0.48-0.029  c-2.104,0-2.766,1.172-2.766,3.095v9.558h-2.854V32.644h2.825V34.507"
     id="path25"
     style="fill:#383a3b;fill-opacity:1" /><polyline
     fill="#010202"
     points="152.02,47.821 149.194,47.821 149.194,32.644 152.02,32.644 152.02,47.821 "
     id="polyline27"
     style="fill:#383a3b;fill-opacity:1" /><path
     fill="#6A971F"
     d="M6.764,24.854c0.632,3.338,1.712,6.027,3.184,7.952c0.811,1.063,1.743,1.896,2.781,2.479  c2.184,1.225,4.447,1.141,5.809,0.681c3.172-5.067,3.075-11.772-0.767-16.806c-3.642-4.766-9.615-6.689-15.102-5.408  c0.157,0.161,0.318,0.339,0.479,0.548C4.4,15.946,5.652,18.977,6.764,24.854"
     id="path29" /><path
     fill="#6A971F"
     d="M35.615,3.499c0.128-0.18,0.258-0.329,0.388-0.467c-4.601-0.967-9.546,0.745-12.497,4.786  c-3.113,4.27-3.071,9.86-0.332,14.03c1.144,0.357,3.031,0.386,4.83-0.676c0.858-0.504,1.619-1.216,2.276-2.117  c1.192-1.635,2.043-3.894,2.511-6.691C33.608,7.442,34.599,4.894,35.615,3.499"
     id="path31" /><polyline
     fill="none"
     points="2.668,2.769 2.668,48.122 152.486,48.122 152.486,2.769 "
     id="polyline33" /><path
     fill="#A5BD76"
     d="M17.391,4.022c0.004-0.104,0.017-0.199,0.031-0.286c-2.07,0.821-3.574,2.792-3.681,5.158  c-0.112,2.499,1.368,4.695,3.538,5.626c0.546-0.158,1.298-0.641,1.731-1.531c0.206-0.424,0.321-0.903,0.345-1.43  c0.042-0.958-0.211-2.072-0.76-3.299C17.63,6.104,17.353,4.838,17.391,4.022"
     id="path35" /><path
     fill="#010202"
     d="M152.486,29.896c0,1.037-0.842,1.878-1.88,1.878c-1.037,0-1.879-0.841-1.879-1.878  c0-1.038,0.842-1.879,1.879-1.879C151.645,28.017,152.486,28.857,152.486,29.896"
     id="path37"
     style="fill:#383a3b;fill-opacity:1" /><rect
     x="2.668"
     y="2.768"
     fill="none"
     width="149.82"
     height="45.354"
     id="rect39" /></svg>